<?xml version="1.0" encoding="utf-8"?>
<svg xmlns="http://www.w3.org/2000/svg" xmlns:xlink="http://www.w3.org/1999/xlink" style="margin: auto; display: block; shape-rendering: auto;" width="223px" height="223px" viewBox="0 0 100 100" preserveAspectRatio="xMidYMid">
<g transform="rotate(0 50 50)">
  <rect x="49" y="25" rx="1" ry="2.56" width="2" height="8" fill="#00d4ff">
    <animate attributeName="opacity" values="1;0" keyTimes="0;1" dur="0.7462686567164178s" begin="-0.6840796019900497s" repeatCount="indefinite"></animate>
  </rect>
</g><g transform="rotate(30 50 50)">
  <rect x="49" y="25" rx="1" ry="2.56" width="2" height="8" fill="#00d4ff">
    <animate attributeName="opacity" values="1;0" keyTimes="0;1" dur="0.7462686567164178s" begin="-0.6218905472636815s" repeatCount="indefinite"></animate>
  </rect>
</g><g transform="rotate(60 50 50)">
  <rect x="49" y="25" rx="1" ry="2.56" width="2" height="8" fill="#00d4ff">
    <animate attributeName="opacity" values="1;0" keyTimes="0;1" dur="0.7462686567164178s" begin="-0.5597014925373134s" repeatCount="indefinite"></animate>
  </rect>
</g><g transform="rotate(90 50 50)">
  <rect x="49" y="25" rx="1" ry="2.56" width="2" height="8" fill="#00d4ff">
    <animate attributeName="opacity" values="1;0" keyTimes="0;1" dur="0.7462686567164178s" begin="-0.49751243781094523s" repeatCount="indefinite"></animate>
  </rect>
</g><g transform="rotate(120 50 50)">
  <rect x="49" y="25" rx="1" ry="2.56" width="2" height="8" fill="#00d4ff">
    <animate attributeName="opacity" values="1;0" keyTimes="0;1" dur="0.7462686567164178s" begin="-0.4353233830845771s" repeatCount="indefinite"></animate>
  </rect>
</g><g transform="rotate(150 50 50)">
  <rect x="49" y="25" rx="1" ry="2.56" width="2" height="8" fill="#00d4ff">
    <animate attributeName="opacity" values="1;0" keyTimes="0;1" dur="0.7462686567164178s" begin="-0.3731343283582089s" repeatCount="indefinite"></animate>
  </rect>
</g><g transform="rotate(180 50 50)">
  <rect x="49" y="25" rx="1" ry="2.56" width="2" height="8" fill="#00d4ff">
    <animate attributeName="opacity" values="1;0" keyTimes="0;1" dur="0.7462686567164178s" begin="-0.31094527363184077s" repeatCount="indefinite"></animate>
  </rect>
</g><g transform="rotate(210 50 50)">
  <rect x="49" y="25" rx="1" ry="2.56" width="2" height="8" fill="#00d4ff">
    <animate attributeName="opacity" values="1;0" keyTimes="0;1" dur="0.7462686567164178s" begin="-0.24875621890547261s" repeatCount="indefinite"></animate>
  </rect>
</g><g transform="rotate(240 50 50)">
  <rect x="49" y="25" rx="1" ry="2.56" width="2" height="8" fill="#00d4ff">
    <animate attributeName="opacity" values="1;0" keyTimes="0;1" dur="0.7462686567164178s" begin="-0.18656716417910446s" repeatCount="indefinite"></animate>
  </rect>
</g><g transform="rotate(270 50 50)">
  <rect x="49" y="25" rx="1" ry="2.56" width="2" height="8" fill="#00d4ff">
    <animate attributeName="opacity" values="1;0" keyTimes="0;1" dur="0.7462686567164178s" begin="-0.12437810945273631s" repeatCount="indefinite"></animate>
  </rect>
</g><g transform="rotate(300 50 50)">
  <rect x="49" y="25" rx="1" ry="2.56" width="2" height="8" fill="#00d4ff">
    <animate attributeName="opacity" values="1;0" keyTimes="0;1" dur="0.7462686567164178s" begin="-0.062189054726368154s" repeatCount="indefinite"></animate>
  </rect>
</g><g transform="rotate(330 50 50)">
  <rect x="49" y="25" rx="1" ry="2.56" width="2" height="8" fill="#00d4ff">
    <animate attributeName="opacity" values="1;0" keyTimes="0;1" dur="0.7462686567164178s" begin="0s" repeatCount="indefinite"></animate>
  </rect>
</g>
<!-- [ldio] generated by https://loading.io/ --></svg>